<svg width="36" height="60" viewBox="0 0 36 60" fill="none" xmlns="http://www.w3.org/2000/svg">
<rect x="0.5" y="0.5" width="34.6522" height="59" rx="17.3261" fill="white" stroke="black"/>
<line x1="17.8913" y1="13.9131" x2="17.8913" y2="28.6957" stroke="black"/>
<g clip-path="url(#clip0)">
<path d="M17.4998 47.2053C17.2668 47.2053 17.0339 47.1163 16.8562 46.9388L11.2665 41.349C10.9109 40.9934 10.9109 40.4169 11.2665 40.0615C11.622 39.7061 12.1984 39.7061 12.554 40.0615L17.4998 45.0076L22.4457 40.0617C22.8013 39.7062 23.3776 39.7062 23.733 40.0617C24.0888 40.4171 24.0888 40.9936 23.733 41.3492L18.1434 46.939C17.9657 47.1165 17.7327 47.2053 17.4998 47.2053Z" fill="black"/>
</g>
<defs>
<clipPath id="clip0">
<rect width="13" height="13" fill="white" transform="translate(11 37)"/>
</clipPath>
</defs>
</svg>
